<svg xmlns="http://www.w3.org/2000/svg" width="26" height="26" viewBox="0 0 26 26">
  <path id="cancel_FILL0_wght400_GRAD0_opsz48" d="M12.125,23.24,17,18.365l4.875,4.875,1.365-1.365L18.365,17l4.875-4.875L21.875,10.76,17,15.635,12.125,10.76,10.76,12.125,15.635,17,10.76,21.875ZM17,30a12.579,12.579,0,0,1-5.038-1.024,13.1,13.1,0,0,1-6.939-6.939,12.986,12.986,0,0,1,0-10.107A12.992,12.992,0,0,1,7.819,7.8a13.326,13.326,0,0,1,4.144-2.779,12.986,12.986,0,0,1,10.107,0,12.98,12.98,0,0,1,6.906,6.906,12.986,12.986,0,0,1,0,10.107A13.326,13.326,0,0,1,26.2,26.181a12.992,12.992,0,0,1-4.127,2.795A12.659,12.659,0,0,1,17,30Zm0-1.95a10.633,10.633,0,0,0,7.832-3.234A10.676,10.676,0,0,0,28.05,17a10.66,10.66,0,0,0-3.218-7.833A10.66,10.66,0,0,0,17,5.95,10.676,10.676,0,0,0,9.184,9.167,10.633,10.633,0,0,0,5.95,17a10.649,10.649,0,0,0,3.234,7.816A10.649,10.649,0,0,0,17,28.05ZM17,17Z" transform="translate(-4 -4)" fill="#fff"/>
</svg>
