<svg xmlns="http://www.w3.org/2000/svg" width="26" height="26" viewBox="0 0 26 26">
  <g id="Group_10" data-name="Group 10" transform="translate(-10 -10)">
    <path id="help_FILL0_wght400_GRAD0_opsz48" d="M17,30a12.579,12.579,0,0,1-5.038-1.024,13.1,13.1,0,0,1-6.939-6.939,12.986,12.986,0,0,1,0-10.107A12.992,12.992,0,0,1,7.819,7.8a13.326,13.326,0,0,1,4.144-2.779,12.986,12.986,0,0,1,10.107,0,12.98,12.98,0,0,1,6.906,6.906,12.986,12.986,0,0,1,0,10.107A13.326,13.326,0,0,1,26.2,26.181a12.992,12.992,0,0,1-4.127,2.795A12.659,12.659,0,0,1,17,30Zm0-1.95a10.633,10.633,0,0,0,7.832-3.234A10.676,10.676,0,0,0,28.05,17a10.66,10.66,0,0,0-3.218-7.833A10.66,10.66,0,0,0,17,5.95,10.676,10.676,0,0,0,9.184,9.167,10.633,10.633,0,0,0,5.95,17a10.649,10.649,0,0,0,3.234,7.816A10.649,10.649,0,0,0,17,28.05Z" transform="translate(6 6)" fill="#fff"/>
    <path id="newspaper_FILL0_wght400_GRAD0_opsz48" d="M4.839,16.072A.836.836,0,0,1,4,15.232V6l.937.937L5.86,6l.937.937L7.735,6l.923.937L9.6,6l.937.937L11.456,6l.937.937L13.33,6l.923.937L15.191,6v9.232a.836.836,0,0,1-.839.839Zm0-.839H9.176V11.316H4.839Zm5.176,0h4.336V13.694H10.015Zm0-2.378h4.336V11.316H10.015ZM4.839,10.476h9.512V8.8H4.839Z" transform="translate(12.905 12.179)" fill="#fff"/>
  </g>
</svg>
