<svg xmlns="http://www.w3.org/2000/svg" width="26" height="26" viewBox="0 0 26 26">
  <path id="help_FILL0_wght400_GRAD0_opsz48" d="M17.13,24.573a1.221,1.221,0,1,0-.877-.358A1.193,1.193,0,0,0,17.13,24.573Zm-1.137-4.745H17.91a5.319,5.319,0,0,1,.211-1.544,3.827,3.827,0,0,1,1.316-1.609,5.687,5.687,0,0,0,1.43-1.657,3.816,3.816,0,0,0,.422-1.788,3.588,3.588,0,0,0-1.121-2.762,4.2,4.2,0,0,0-2.974-1.04,5.024,5.024,0,0,0-2.811.8,4.548,4.548,0,0,0-1.771,2.194l1.722.65a3.032,3.032,0,0,1,1.072-1.414,2.859,2.859,0,0,1,1.69-.5,2.6,2.6,0,0,1,1.787.6,1.964,1.964,0,0,1,.683,1.544,2.389,2.389,0,0,1-.423,1.349A6.474,6.474,0,0,1,17.91,15.96a6.61,6.61,0,0,0-1.446,1.674,4.424,4.424,0,0,0-.471,2.194ZM17,30a12.579,12.579,0,0,1-5.038-1.024,13.1,13.1,0,0,1-6.939-6.939,12.986,12.986,0,0,1,0-10.107A12.992,12.992,0,0,1,7.819,7.8a13.326,13.326,0,0,1,4.144-2.779,12.986,12.986,0,0,1,10.107,0,12.98,12.98,0,0,1,6.906,6.906,12.986,12.986,0,0,1,0,10.107A13.326,13.326,0,0,1,26.2,26.181a12.992,12.992,0,0,1-4.127,2.795A12.659,12.659,0,0,1,17,30Zm0-1.95a10.633,10.633,0,0,0,7.832-3.234A10.676,10.676,0,0,0,28.05,17a10.66,10.66,0,0,0-3.218-7.833A10.66,10.66,0,0,0,17,5.95,10.676,10.676,0,0,0,9.184,9.167,10.633,10.633,0,0,0,5.95,17a10.649,10.649,0,0,0,3.234,7.816A10.649,10.649,0,0,0,17,28.05ZM17,17Z" transform="translate(-4 -4)" fill="#fff"/>
</svg>
