<?xml version="1.0" encoding="UTF-8"?>
<svg id="Layer_2" data-name="Layer 2" xmlns="http://www.w3.org/2000/svg" viewBox="0 0 100 100.01">
  <defs>
    <style>
      .cls-1 {
        fill: #fff;
      }
    </style>
  </defs>
  <g id="Layer_1-2" data-name="Layer 1">
    <path id="cancel_FILL0_wght400_GRAD0_opsz48" data-name="cancel FILL0 wght400 GRAD0 opsz48" class="cls-1" d="M74,31.26l-5.25-5.26-18.74,18.75L31.26,26l-5.26,5.25,18.75,18.75-16.12,16.11c1.99,1.51,3.7,3.35,5.06,5.45l16.31-16.3,18.75,18.74,5.25-5.25-18.75-18.74,18.75-18.75Zm0,0l-5.25-5.26-18.74,18.75L31.26,26l-5.26,5.25,18.75,18.75-16.12,16.11c1.99,1.51,3.7,3.35,5.06,5.45l16.31-16.3,18.75,18.74,5.25-5.25-18.75-18.74,18.75-18.75Zm0,0l-5.25-5.26-18.74,18.75L31.26,26l-5.26,5.25,18.75,18.75-16.12,16.11c1.99,1.51,3.7,3.35,5.06,5.45l16.31-16.3,18.75,18.74,5.25-5.25-18.75-18.74,18.75-18.75Zm22.07-.76c-5.06-11.98-14.59-21.51-26.56-26.57C63.35,1.29,56.71-.05,50,0c-6.66-.04-13.25,1.3-19.37,3.93-5.94,2.53-11.35,6.16-15.95,10.7-4.57,4.54-8.22,9.93-10.75,15.87C1.29,36.66-.04,43.3,0,50c-.03,5.54,.89,11.04,2.72,16.25,1.96-1.52,4.19-2.7,6.61-3.46-1.27-4.1-1.9-8.41-1.83-12.79-.21-11.33,4.3-22.24,12.44-30.13,7.89-8.08,18.77-12.56,30.06-12.37,11.32-.21,22.22,4.27,30.13,12.37,8.1,7.91,12.58,18.81,12.37,30.13,.19,11.3-4.29,22.17-12.37,30.06-7.89,8.15-18.8,12.65-30.13,12.45h0c-4.85,.07-9.63-.71-14.12-2.27-.83,2.38-2.08,4.57-3.66,6.48,5.66,2.2,11.7,3.32,17.78,3.29h0c6.71,.04,13.35-1.3,19.51-3.94,5.93-2.53,11.32-6.18,15.87-10.75,4.53-4.59,8.16-10,10.69-15.94,2.63-6.12,3.97-12.72,3.93-19.38,.04-6.7-1.29-13.34-3.93-19.5Zm-22.07,.76l-5.25-5.26-18.74,18.75L31.26,26l-5.26,5.25,18.75,18.75-16.12,16.11c1.99,1.51,3.7,3.35,5.06,5.45l16.31-16.3,18.75,18.74,5.25-5.25-18.75-18.74,18.75-18.75Zm0,0l-5.25-5.26-18.74,18.75L31.26,26l-5.26,5.25,18.75,18.75-16.12,16.11c1.99,1.51,3.7,3.35,5.06,5.45l16.31-16.3,18.75,18.74,5.25-5.25-18.75-18.74,18.75-18.75Z"/>
    <path class="cls-1" d="M24.83,93.16H6.8c-1.41,0-2.55-1.15-2.55-2.56v-1.28h-1.28c-.71,0-1.28-.57-1.28-1.28v-3.84c0-.7,.57-1.28,1.28-1.28h1.27c0-2.73,1.23-5.18,3.16-6.82,4.32,7.02,10.31,12.89,17.43,17.06Z"/>
    <path id="robot" class="cls-1" d="M28.55,82.92h-1.27c0-4.94-4.01-8.95-8.96-8.95h-1.28v-1.63c.79-.46,1.28-1.3,1.28-2.22,0-1.41-1.15-2.55-2.56-2.55-.91,0-1.76,.48-2.22,1.28-.7,1.22-.28,2.78,.94,3.49v1.63h-1.28c-2.22,0-4.24,.8-5.8,2.13-1.93,1.64-3.16,4.09-3.16,6.82h-1.27c-.71,0-1.28,.58-1.28,1.28v3.84c0,.71,.57,1.28,1.28,1.28h1.28v1.28c0,1.41,1.14,2.56,2.55,2.56H24.83c1.36-.06,2.45-1.19,2.45-2.56v-1.28h1.28c.71,0,1.28-.57,1.28-1.28v-3.84c-.01-.71-.58-1.28-1.29-1.28Zm-7.03,.21c.88,0,1.68,.36,2.26,.94s.94,1.38,.94,2.26c0,1.76-1.44,3.2-3.2,3.2s-3.2-1.44-3.2-3.2,1.43-3.2,3.2-3.2Zm-11.52,6.4c-1.76,0-3.2-1.44-3.2-3.2s1.44-3.2,3.2-3.2c.88,0,1.68,.36,2.26,.94,.58,.58,.94,1.38,.94,2.26,0,1.76-1.43,3.2-3.2,3.2Z"/>
  </g>
</svg>