<?xml version="1.0" encoding="UTF-8"?>
<svg id="Layer_2" data-name="Layer 2" xmlns="http://www.w3.org/2000/svg" viewBox="0 0 100 100">
  <defs>
    <style>
      .cls-1 {
        fill: #fff;
      }
    </style>
  </defs>
  <g id="Layer_1-2" data-name="Layer 1">
    <g>
      <path id="Ellipse_8" data-name="Ellipse 8" class="cls-1" d="M50,0C36.2,0,23.7,5.6,14.65,14.65S0,36.2,0,50c0,5.95,1.04,11.65,2.95,16.94,1.78-1.33,3.77-2.4,5.92-3.12-1.46-4.34-2.25-8.99-2.25-13.82C6.62,26.05,26.04,6.63,50,6.63c23.95,.02,43.35,19.43,43.38,43.37h0c0,23.96-19.43,43.38-43.38,43.38-4.93,0-9.67-.82-14.09-2.34-.74,2.14-1.82,4.13-3.18,5.9,5.39,1.98,11.2,3.06,17.27,3.06,27.61,0,50-22.38,50-50S77.61,0,50,0Z"/>
      <rect class="cls-1" x="46.26" y="26.38" width="7.47" height="48.38"/>
      <rect class="cls-1" x="25.81" y="46.83" width="48.38" height="7.48"/>
    </g>
    <path id="robot" class="cls-1" d="M15.76,68.44c1.41,0,2.56,1.14,2.56,2.56,0,.91-.49,1.76-1.28,2.22v1.62h1.28c4.95,0,8.95,4.01,8.95,8.96h1.28c.71,0,1.28,.57,1.29,1.27,0,0,0,0,0,0v3.84c0,.71-.57,1.28-1.28,1.28,0,0,0,0,0,0h-1.28v1.28c0,1.41-1.15,2.56-2.56,2.56H6.8c-1.41,0-2.56-1.15-2.56-2.56h0v-1.28h-1.28c-.71,0-1.28-.57-1.28-1.28h0v-3.84c0-.71,.57-1.28,1.28-1.28h1.28c0-4.95,4.01-8.96,8.96-8.96h1.28v-1.62c-1.22-.71-1.64-2.27-.94-3.49,.46-.79,1.3-1.28,2.22-1.28m-5.76,15.56c-1.77,0-3.2,1.43-3.2,3.2s1.43,3.2,3.2,3.2,3.2-1.43,3.2-3.2h0c0-1.77-1.43-3.2-3.2-3.2m11.52,0c-1.77,0-3.2,1.43-3.2,3.2s1.43,3.2,3.2,3.2,3.2-1.43,3.2-3.2h0c0-1.77-1.43-3.2-3.2-3.2h0Z"/>
  </g>
</svg>