<?xml version="1.0" encoding="UTF-8"?>
<svg id="Layer_2" data-name="Layer 2" xmlns="http://www.w3.org/2000/svg" viewBox="0 0 100 100">
  <defs>
    <style>
      .cls-1 {
        fill: #fff;
      }
    </style>
  </defs>
  <g id="Layer_1-2" data-name="Layer 1">
    <path id="check_circle_FILL0_wght400_GRAD0_opsz48" data-name="check circle FILL0 wght400 GRAD0 opsz48" class="cls-1" d="M72.25,31.74l-29.62,29.63-15-15-5.64,5.64,20.64,20.74,35.37-35.37-5.75-5.64Zm23.81-1.24c-5.06-11.97-14.58-21.5-26.56-26.56C63.34,1.3,56.7-.04,50,0c-6.66-.03-13.26,1.31-19.37,3.94-5.94,2.53-11.35,6.15-15.94,10.69-4.58,4.54-8.23,9.94-10.75,15.87C1.3,36.66-.04,43.3,0,50c-.03,5.78,.98,11.52,2.97,16.93,1.97-1.48,4.2-2.62,6.61-3.35-1.43-4.33-2.15-8.92-2.08-13.58-.2-11.33,4.3-22.24,12.44-30.12,7.89-8.09,18.76-12.56,30.06-12.38,11.32-.21,22.22,4.27,30.12,12.38,8.11,7.9,12.59,18.8,12.38,30.12,.18,11.3-4.29,22.17-12.38,30.06-7.88,8.14-18.79,12.65-30.12,12.44-4.76,.08-9.44-.68-13.85-2.17-.74,2.4-1.9,4.62-3.39,6.58,5.5,2.07,11.35,3.13,17.24,3.09,6.7,.04,13.34-1.3,19.5-3.94,5.94-2.52,11.33-6.17,15.87-10.75,4.54-4.59,8.16-10,10.69-15.94,2.63-6.11,3.97-12.71,3.94-19.37,.04-6.7-1.3-13.34-3.94-19.5Zm-18.06,6.88l-5.75-5.64-29.62,29.63-15-15-5.64,5.64,20.64,20.74,35.37-35.37Zm-5.75-5.64l-29.62,29.63-15-15-5.64,5.64,20.64,20.74,35.37-35.37-5.75-5.64Z"/>
    <path id="robot" class="cls-1" d="M15.76,68.44c1.41,0,2.56,1.14,2.56,2.56,0,.91-.49,1.76-1.28,2.22v1.62h1.28c4.95,0,8.95,4.01,8.95,8.96h1.28c.71,0,1.28,.57,1.29,1.27,0,0,0,0,0,0v3.84c0,.71-.57,1.28-1.28,1.28,0,0,0,0,0,0h-1.28v1.28c0,1.41-1.15,2.56-2.56,2.56H6.8c-1.41,0-2.56-1.15-2.56-2.56h0v-1.28h-1.28c-.71,0-1.28-.57-1.28-1.28h0v-3.84c0-.71,.57-1.28,1.28-1.28h1.28c0-4.95,4.01-8.96,8.96-8.96h1.28v-1.62c-1.22-.71-1.64-2.27-.94-3.49,.46-.79,1.3-1.28,2.22-1.28m-5.76,15.56c-1.77,0-3.2,1.43-3.2,3.2s1.43,3.2,3.2,3.2,3.2-1.43,3.2-3.2h0c0-1.77-1.43-3.2-3.2-3.2m11.52,0c-1.77,0-3.2,1.43-3.2,3.2s1.43,3.2,3.2,3.2,3.2-1.43,3.2-3.2h0c0-1.77-1.43-3.2-3.2-3.2h0Z"/>
  </g>
</svg>