<?xml version="1.0" encoding="UTF-8"?>
<svg id="Layer_2" data-name="Layer 2" xmlns="http://www.w3.org/2000/svg" viewBox="0 0 102 97.36">
  <defs>
    <style>
      .cls-1 {
        fill: #fff;
      }
    </style>
  </defs>
  <g id="Layer_1-2" data-name="Layer 1">
    <path id="verified_FILL0_wght400_GRAD0_opsz48" data-name="verified FILL0 wght400 GRAD0 opsz48" class="cls-1" d="M102,48.68l-11.13-12.86,1.97-17.04-17.38-3.59L66.53,0l-15.53,7.19L35.47,0l-8.81,15.19-17.5,3.59,1.97,17.04L0,48.68l11.13,12.99-.09,.8c2.13-.73,4.42-1.12,6.79-1.12,.09,0,.19,0,.28,.01l.2-2.01-9.39-10.67,9.39-10.89-1.39-13.8,13.56-3.24,7.76-11.59,12.75,5.21,12.52-5.21,8.01,11.59,13.56,3.24-1.39,13.8,9.38,10.89-9.38,10.67,1.39,13.79-13.56,3.48-7.77,11.59-12.75-5.22-12.4,5.22-.11-.16c-.75,2.89-2.09,5.55-3.89,7.83l.87,1.48,15.53-7.18,15.53,7.18,8.93-15.07,17.38-3.59-1.97-17.04,11.13-12.98Z"/>
    <path id="robot" class="cls-1" d="M17.83,67.12c1.41,0,2.56,1.14,2.56,2.56,0,.91-.49,1.76-1.28,2.22v1.62h1.28c4.95,0,8.95,4.01,8.95,8.96h1.28c.71,0,1.28,.57,1.29,1.27,0,0,0,0,0,0v3.84c0,.71-.57,1.28-1.28,1.28,0,0,0,0,0,0h-1.28v1.28c0,1.41-1.15,2.56-2.56,2.56H8.87c-1.41,0-2.56-1.15-2.56-2.56h0v-1.28h-1.28c-.71,0-1.28-.57-1.28-1.28h0v-3.84c0-.71,.57-1.28,1.28-1.28h1.28c0-4.95,4.01-8.96,8.96-8.96h1.28v-1.62c-1.22-.71-1.64-2.27-.94-3.49,.46-.79,1.3-1.28,2.22-1.28m-5.76,15.56c-1.77,0-3.2,1.43-3.2,3.2s1.43,3.2,3.2,3.2,3.2-1.43,3.2-3.2h0c0-1.77-1.43-3.2-3.2-3.2m11.52,0c-1.77,0-3.2,1.43-3.2,3.2s1.43,3.2,3.2,3.2,3.2-1.43,3.2-3.2h0c0-1.77-1.43-3.2-3.2-3.2h0Z"/>
  </g>
</svg>