<?xml version="1.0" encoding="UTF-8"?>
<svg id="Layer_2" data-name="Layer 2" xmlns="http://www.w3.org/2000/svg" viewBox="0 0 100 100.01">
  <g id="Layer_1-2" data-name="Layer 1">
    <path id="cancel_FILL0_wght400_GRAD0_opsz48" data-name="cancel FILL0 wght400 GRAD0 opsz48" d="M31.25,74.01l18.75-18.75,18.75,18.75,5.25-5.25-18.75-18.75,18.75-18.75-5.24-5.26-18.75,18.75L31.26,26l-5.26,5.25,18.75,18.75-18.75,18.75,5.25,5.26Zm18.75,26c-6.66,.04-13.26-1.3-19.38-3.93-12.02-5.1-21.59-14.67-26.69-26.7C1.3,63.26-.04,56.66,0,50c-.05-6.7,1.29-13.34,3.93-19.5,2.53-5.94,6.18-11.33,10.75-15.87,4.59-4.54,10-8.17,15.94-10.7C36.75,1.3,43.34-.04,50,0c6.7-.05,13.34,1.29,19.5,3.93,11.98,5.06,21.51,14.59,26.56,26.57,2.64,6.16,3.98,12.8,3.93,19.5,.04,6.66-1.3,13.26-3.93,19.38-2.53,5.94-6.15,11.35-10.69,15.94-4.55,4.57-9.94,8.22-15.87,10.75-6.16,2.64-12.8,3.98-19.5,3.94h0Zm0-7.5c11.33,.21,22.24-4.3,30.13-12.44,8.09-7.89,12.56-18.77,12.38-30.06,.21-11.32-4.27-22.22-12.38-30.13-7.9-8.11-18.8-12.59-30.12-12.38-11.3-.19-22.17,4.29-30.06,12.38-8.14,7.88-12.65,18.79-12.44,30.13-.18,11.31,4.32,22.19,12.44,30.06,7.87,8.12,18.76,12.62,30.07,12.44h0Z" fill="#fff"/>
  </g>
</svg>