<?xml version="1.0" encoding="UTF-8"?>
<svg id="Layer_2" data-name="Layer 2" xmlns="http://www.w3.org/2000/svg" viewBox="0 0 100 100">
  <g id="Layer_1-2" data-name="Layer 1">
    <path id="check_circle_FILL0_wght400_GRAD0_opsz48" data-name="check circle FILL0 wght400 GRAD0 opsz48" d="M42.63,72.75l35.37-35.37-5.75-5.63-29.62,29.62-15-14.99-5.63,5.63,20.63,20.74Zm7.37,27.25c-6.66,.03-13.26-1.31-19.37-3.94-12.02-5.1-21.59-14.67-26.69-26.69C1.31,63.26-.03,56.66,0,50c-.04-6.7,1.3-13.34,3.94-19.5,2.53-5.94,6.18-11.33,10.75-15.87,4.59-4.53,10-8.16,15.94-10.69C36.74,1.31,43.34-.03,50,0c6.7-.04,13.34,1.3,19.5,3.94,11.97,5.06,21.5,14.59,26.56,26.56,2.64,6.16,3.98,12.8,3.94,19.5,.04,6.66-1.31,13.26-3.94,19.37-2.53,5.94-6.15,11.34-10.69,15.94-4.55,4.57-9.94,8.22-15.87,10.75-6.16,2.64-12.8,3.98-19.5,3.94h0Zm0-7.5c11.33,.21,22.24-4.3,30.12-12.44,8.08-7.89,12.56-18.77,12.37-30.06,.21-11.32-4.27-22.22-12.37-30.12-7.9-8.11-18.8-12.59-30.12-12.37-11.3-.19-22.17,4.29-30.06,12.37-8.14,7.88-12.64,18.79-12.44,30.12-.18,11.31,4.32,22.19,12.44,30.06,7.87,8.12,18.75,12.62,30.06,12.44h0Z" fill="#fff"/>
  </g>
</svg>