<?xml version="1.0" encoding="UTF-8"?>
<svg id="Layer_2" data-name="Layer 2" xmlns="http://www.w3.org/2000/svg" viewBox="0 0 102 97.36">
  <g id="Layer_1-2" data-name="Layer 1">
    <path id="verified_FILL0_wght400_GRAD0_opsz48" data-name="verified FILL0 wght400 GRAD0 opsz48" d="M35.47,97.36l-8.8-15.07-17.51-3.59,1.97-17.04L0,48.68l11.13-12.87-1.97-17.04,17.5-3.59L35.47,0l15.53,7.19L66.53,0l8.93,15.18,17.39,3.59-1.97,17.04,11.13,12.87-11.13,12.98,1.97,17.04-17.39,3.59-8.93,15.07-15.53-7.18-15.53,7.18Zm3.13-9.16l12.4-5.22,12.75,5.22,7.77-11.59,13.56-3.48-1.39-13.79,9.39-10.67-9.39-10.9,1.39-13.79-13.56-3.24-8-11.59-12.52,5.22-12.75-5.22-7.77,11.59-13.56,3.24,1.39,13.79-9.39,10.9,9.39,10.67-1.39,14.02,13.56,3.24,8.11,11.59Zm7.42-24.11l26.31-26.08-5.22-4.75-21.1,20.86-11.01-11.47-5.33,5.22,16.35,16.22Z"  fill="#fff"/>
  </g>
</svg>